/* XPM */
static char *_5d57562b84c4fba9c22c8549a354611Hxtnu3qStacHX8hq[] = {
/* columns rows colors chars-per-pixel */
"32 32 180 2 ",
"   c None",
".  c #2A1D0D",
"X  c #2B1E0F",
"o  c #2C1D0E",
"O  c #2C1E0F",
"+  c #2C1F0F",
"@  c #2D2010",
"#  c #2E2011",
"$  c #2E2111",
"%  c #2F2112",
"&  c #302213",
"*  c #322415",
"=  c #332516",
"-  c #352514",
";  c #342516",
":  c #352516",
">  c #352617",
",  c #382816",
"<  c #392A17",
"1  c #37281A",
"2  c #37291A",
"3  c #3B2A18",
"4  c #38291B",
"5  c #3A2B1A",
"6  c #3C2E1A",
"7  c #3A2B1C",
"8  c #3A2B1D",
"9  c #3C2C1E",
"0  c #3C2D1F",
"q  c #3D2D20",
"w  c #3D2E20",
"e  c #3E2E21",
"r  c #3F2F21",
"t  c #4D2C16",
"y  c #432E1D",
"u  c #442E1D",
"i  c #532B12",
"p  c #552A10",
"a  c #552C13",
"s  c #5C2E13",
"d  c #5C3014",
"f  c #603115",
"g  c #673418",
"h  c #6F381D",
"j  c #463423",
"k  c #4C3928",
"l  c #4D3A29",
"z  c #4E3E2C",
"x  c #4E3E2D",
"c  c #5A3F28",
"v  c #7C3E23",
"b  c #4E452D",
"n  c #5B422E",
"m  c #5C452F",
"M  c #484E3A",
"N  c #5D4A34",
"B  c #6F482C",
"V  c #7C4024",
"C  c #7B432F",
"Z  c #604731",
"A  c #624932",
"S  c #664C34",
"D  c #654C36",
"F  c #674D36",
"G  c #61543C",
"H  c #6F533A",
"J  c #70533A",
"K  c #71543C",
"L  c #72553C",
"P  c #72553D",
"I  c #77593E",
"U  c #5C5942",
"Y  c #6F5D40",
"T  c #745D42",
"R  c #7D5D41",
"E  c #7F5F43",
"W  c #7B5F45",
"Q  c #596246",
"!  c #69674B",
"~  c #7F6448",
"^  c #716D4D",
"/  c #786A4B",
"(  c #814227",
")  c #904A2F",
"_  c #964E33",
"`  c #8C5232",
"'  c #9D5237",
"]  c #9E5338",
"[  c #9F5338",
"{  c #A05339",
"}  c #A15439",
"|  c #A8583D",
" . c #AD5A3F",
".. c #AD5B40",
"X. c #AE5B40",
"o. c #AE5C41",
"O. c #876545",
"+. c #896242",
"@. c #876846",
"#. c #8C6948",
"$. c #8E6A4A",
"%. c #8F6B4B",
"&. c #847053",
"*. c #9B7452",
"=. c #9C7552",
"-. c #9D7653",
";. c #9E7653",
":. c #B16246",
">. c #A07955",
",. c #A17955",
"<. c #A27A55",
"1. c #A57D57",
"2. c #B17A51",
"3. c #BC7957",
"4. c #578867",
"5. c #7A8564",
"6. c #A9805A",
"7. c #A9835C",
"8. c #AD835C",
"9. c #AE845D",
"0. c #BD805A",
"q. c #A28560",
"w. c #AB8760",
"e. c #B18860",
"r. c #B58A61",
"t. c #B78C62",
"y. c #B78E63",
"u. c #B98F64",
"i. c #B89066",
"p. c #B6936A",
"a. c #B6936B",
"s. c #B3976D",
"d. c #B6956C",
"f. c #B4986F",
"g. c #BF986A",
"h. c #BF986C",
"j. c #BC996F",
"k. c #C09565",
"l. c #C69B6D",
"z. c #C99B6C",
"x. c #C99B6D",
"c. c #CC9E6F",
"v. c #C39E72",
"b. c #CC9F70",
"n. c #C3A276",
"m. c #C9A373",
"M. c #CDA072",
"N. c #CDA172",
"B. c #CEA576",
"V. c #C7A77A",
"C. c #CEA779",
"Z. c #CEA979",
"A. c #D0A675",
"S. c #D3A877",
"D. c #D7A976",
"F. c #D2AB7B",
"G. c #D7AA78",
"H. c #D4AC7B",
"J. c #D7AF7E",
"K. c #DCAF7B",
"L. c #E3B17C",
"P. c #70A982",
"I. c #DFB581",
"U. c #DBB886",
"Y. c #EDBC84",
"T. c #E2C18D",
"R. c #F5C389",
"E. c #F5C58B",
"W. c #F0C68F",
"Q. c #F3CA92",
"!. c #F5CA91",
"~. c #F4CC94",
"^. c #F7D199",
"/. c #F5D29A",
"(. c #F6D39A",
"). c #F6D59D",
"_. c #F6D8A0",
"`. c #F5DBA4",
"'. c #F6DCA4",
"]. c #F5DDA6",
/* pixels */
"                                                                ",
"                                                                ",
"                                                                ",
"                                                                ",
"                                                                ",
"                                                                ",
"                                                                ",
"                                                                ",
"                                                                ",
"                          J.j.n.T.                              ",
"                  >       i.j.A.K.    1                         ",
"                    i     d.+.` 2.  1 3                         ",
"                  g a >   V.W C 0.g.@.u.p.Z.  v.                ",
"                  '   Y s.C.7.R w.H.F.e.        p.I.L.x.9.      ",
"                ....  k.m.U.B.x.S.N.3.:.            y.<.        ",
"                o.} f d c &.~ q.f.B v { ..                      ",
"                 ._ s p u q q x x y t V [ ..                    ",
"                  h       1 0 q q 8     ( |                     ",
"                            > > = O       ..                    ",
"                          T ^ 6 , b Q     }                     ",
"                          N ! / P.5.U   [ )                     ",
"                        l.y.I G 4.M n #.                        ",
"                      E.(.(.N.m O 3 K =.                        ",
"                    R.(.'.).G.S O 1 K =.=.                      ",
"                    !.`.'.W.r.A X & J =.=.                      ",
"                    ~._.Q.b.<.A X # H =.=.#.                    ",
"                  6.D.Y.c.<.*.Z X # J =.=.K                     ",
"                  =.1.8.<.    j # # S *.R k                     ",
"                    O.#.              S k q                     ",
"                    , 3                   =                     ",
"                    0 8                   X X                   ",
"                                                                "
};
