/* XPM */
static char *c2e49935acc3427de0b5c7b0c54862d6KD13UVem6s9dJLn8[] = {
/* columns rows colors chars-per-pixel */
"63 62 50 1 ",
"  c #395502",
". c #3E5B03",
"X c #425E04",
"o c #456104",
"O c #4A6506",
"+ c #4E6906",
"@ c #4D6709",
"# c #526C06",
"$ c #546E09",
"% c #5B7307",
"& c #567008",
"* c #5D7509",
"= c #5F790C",
"- c #607507",
"; c #62770C",
": c #607808",
"> c #60780A",
", c #60780B",
"< c #63780A",
"1 c #65790B",
"2 c #617A0D",
"3 c #64780C",
"4 c #64790C",
"5 c #627C0E",
"6 c #647C0C",
"7 c #667D0E",
"8 c #687C0D",
"9 c #627810",
"0 c #647811",
"q c #667A13",
"w c #667E10",
"e c #687B13",
"r c #687F10",
"t c #687C14",
"y c #6A7C1C",
"u c #6D7F1F",
"i c #6B7C21",
"p c #6E7E27",
"a c #6F7E2A",
"s c #747F36",
"d c #6B810E",
"f c #688010",
"g c #6C8110",
"h c #73802F",
"j c #798341",
"k c #83865E",
"l c #8A896E",
"z c #8B8A70",
"x c #8C8B73",
"c c #979688",
/* pixels */
"2,====%==,,14,,11ilzlkt4,,,,,,4,,222=,,==,=,,,,122@#=o+*2=2,427",
",==,==*,,,=,,44,41qpuq4,4,,,,,,,,,2,,,,2,,,,,,,,,,,XOoO%=,2,222",
",,==,,-*,,,,,4,11,,,1,,142,,,,1=222,,,222,,,,,2,-1,&.o+%,,,,,22",
",,2,=,--1,2,,,,,1,4,,11,2,,,1,,%,,,,42*,1=4,,,4,124%%%,,4,422,4",
",2,,,,,,,277=%%,1,441,,1,=,,=44,,=-4,=414,24,,4,,,,,,,4,14,1242",
"4,4,1,,,==77=**,11411,4,,,,42,44,4,44*,21412,,22,,,2=,,1744,,8,",
"=8,4;,44,,2,=,,,,,841,444,,4,,11,4,4,,=244477772,=====,,,22841,",
"7844,,,4,,,,14,,444448,11,4,48111;2-,,,,447777752==*%%=*,,,111,",
"8,=,2,14,,,,1,1,1,14,441,,4,,,,,44,=%=,=,7777r752==%%%%**,144,,",
"==244,4,,=,12,241414,,1,,1,4,,4,42,=,===2277w775==*%%%==,,42,=#",
"#$d4,447,,,,41,,114,4,,4444,,4442,,,2,===2577772===*%**%=,==,=O",
"o$444422,,=,,,2,,4,,2,4777,====,,=,7=2;222227222=====%==,,,4,,%",
"@=777772,===2=,,14,2==27772=*%%=,4,;4,,=22==222,,=,*=,=,,=,4,4,",
"277777752===*%*=,,,2===472====*,2=4,244;;=222,,,==,=,-,*,,=,24=",
"277777752===%%%=,,,,,=2,,*==,==,,,;4;q;;2;;=4,,,,14,=11-2,-,,2,",
"=2777775==**%%%==,,,,,22=77,;,,*,,4;;q;,,24,,4,,,,,*1,,7,=,=,==",
"=2277772===%%%%=*2,42,,,%8f2=,24=24;e9q;2,,,,,14,,,144,,=,4,===",
"2242244,,2=%==;,=,,,4=,,,77,,,=,,44qqq;;2,4,,2,,,,,,144,,,,-,==",
",,2,222,,,=,==,224=,;====22**742;qqq;42,71,,,,7,,,4,,1,-41-=,,,",
"2=,,,,,4,,2,24,,7,22%oX2,$%%78,4qqqe42,4144,4,44,,4,1,1,1,,,-,=",
",44,2,4,1,,,,41,,,771=X2=O#*g422424;218414114814141,,,1,11,4,,,",
"-,124,,,,,,,11,4,,4,,1$@=o+27772===;,,,41,,18422,,,-411,,,,,471",
",4,1,,,,1221,1,,41,141,OooO=7r72=%%=41,4,,,,4772===,,4,,1,,,1,4",
",,,,4,,1,,,,,14441,,4,2=Xo#=7772=%%=,42,,=,27772=%%=,1,,,,,,=11",
"ja41,44,41,1748,,11,,,4,%==22222;==,=7,,,==22742=%%%*,,,,,,1,qh",
"cxp,,,74114,,,,,1,414,7,,1,;;;,2,,,1,,,,,,==2222==**=,,,,,,4,sz",
"lkq,1,1,4,81,4,,,144441,,,1,4;,,,14,-,41,,4,,,,,,=,,2,7,,4,,,il",
"yr,,,4,1,1,41,,,14114,1,,,,4,,112,1144,4,41,,,22*1,-,11,1111,4q",
",,2,41,4,,4,1111=,44,844422,41,,1,,,,1,,,,,11414,,,1,,,,,84,,=,",
"41,4,,1,,,44,114,14,1141,,47,,1,,,,,,,4,84174,,4,,,1,11,1411,,4",
"14,48,,,,,421444,,,,11411,4,,1141,1,,1,,114,11111,,,,1,,114,=,,",
",,41421,24,18,,,,,,1,84,2,1,,,,,1,,4,,414814,4,44411,,,1,,,,,,,",
"444442,4,,22,,4,,,,,4772===,=4,,,,114,11,,,12414,,,,1,48,11,,14",
"44777772,=2==,,,,==27772=*%=,1,1,,,114,14,,44,4,,111,7,,12442=4",
"47777752===*==;%===,774==%*=,2-,,81,1,,,,124,414,414,1,,,212,2=",
"47777752==*%%*,=,,=,,,,=*===,,,,71177222,2,4,4,,,4811811,1,2;22",
"27777752==%%%*===,,2,,,,2,,,,,,*,477772,=%==,,414,74,4,,2,,;=;=",
"2277772===%%%%==2,42,,,,,1,,,2,%277w772==*%%=2,,,14441,,,22====",
"=2422222========,,,,,14,,,,-2====577772==*%%%==1,71,1142=4242;=",
"=222222,,*===,=,,,1,11,,,,,,====2277772==%%*%=2422,,1,,44422,22",
",=,2,2,=,2,,,*4,,,,2,,,,4,,4,,===2477,2=====,=,1,2141,,244,,,,2",
",4,,2,=%=,=,,,,,22244111,,1,,,,42,,,2==,,,,,,22,,,1,1474,8,2=-,",
",=,=,==4,,*,1=,4,444,4,11,,,,,4,2,4,,=,,===,,,2,,,444,4,414,,,1",
",11,,,f8,414,*4,1,244,11,,41,,142,4,=744,2,,,11484,,481,4,4,21,",
",,,2%,77=;=,,,14114,111,,1,,114,2144=d,=,1,122,1,,,44,4141,411,",
",42,=,784==,-,11,,7,2,4,41,,844,2,%$===,,,111,1414,,48,,,44,2,,",
"=,=%,,22,%8,41477,2,,,41,18,,,,,4,,O2+$f,44,11,4,4,414414747,22",
"=% O2=#%%2d,777r72=%%,,,4141424,2,,=Oo$==,,,,114,24,,4878787722",
"==#.w*o#&g,=257772=*%%=848414,24,,=2$+%*%424,,4,,42242447777752",
"=%#O+=o@*4===27742=*%%%*,141=14,2,==2,,,,=,,,144,22242247ww8752",
"*%%#.OoO%,==22222======,2,4,,11,41,,4,,r7=*4,42,,422,=22777775=",
"=%%%#.X+%,,1,2,22=,2,,,,,,,,4,,4,42174=77=*,,42,44;2==22577772=",
"===*%&%=,,4,,4,,,,,,,1,,,1,1,4,144,1,,,,2,,,,2,22,,==,22,22722,",
"===,,=,,,441,,,441,,4,,,,4-7,4,4,7,,44,881,442882;,,=,2,2222227",
",,2*,,,,44,444,,4,,4,-,4,1417,1,1,41,,47,7444,424,,,,42,,,44,2,",
",,,-,,,,,4,,1,11114,4,,141,=,,,,71=14,41=,84444,;,,,12=24,422,1",
"7,,-2,,24,,4141441,4,4-1,4,8,74442,,2,4,,4122744,,,,4%=,4,=,42,",
"4-,,,,,1,84,4,,,,44,1,,4,4,,4114724,2,;;2222424144,,,=2,,1,,,4,",
"2,,,,=,,,,7,441144,4,1,,,4,4,4,777722===;224,4,1,41,,f84,,,8744",
"22=====,,1,,11,,,4,,,,,12,,,,4777w752==**==2-,4,,18,277,,224777",
"52==*%===,-711,,4,81111,4,=2227777752==%%%==,,,,2,,2,7r,==27778",
"72=*%%%%==,1,4,,,4,,,,,42===2277w7752==%%**==2,,2==,,22%%747777"
};
