/* XPM */
static char *_2aeaf758c3b4af0bc22f66d23932a30kHin1ANlJTl7OyiM[] = {
/* columns rows colors chars-per-pixel */
"32 32 237 2 ",
"   c #617A0D",
".  c #60770B",
"X  c #5E770B",
"o  c #5D760A",
"O  c #5D7509",
"+  c #5D7409",
"@  c #5B7308",
"#  c #5F760A",
"$  c #5E7608",
"%  c #60770A",
"&  c #61780A",
"*  c #64790B",
"=  c #637A0D",
"-  c #62790B",
";  c #63780A",
":  c #6B7C21",
">  c #89896E",
",  c #8B8A70",
"<  c #83865E",
"1  c #687C14",
"2  c #657A0D",
"3  c #62770A",
"4  c #607709",
"5  c #63790D",
"6  c #627A0C",
"7  c #60780A",
"8  c #5F770A",
"9  c #5F780A",
"0  c #5E7709",
"q  c #5E7508",
"w  c #5D7508",
"e  c #5F7509",
"r  c #607808",
"t  c #647B0D",
"y  c #657A0C",
"u  c #667A13",
"i  c #6E7E27",
"p  c #6D7F1F",
"a  c #647810",
"s  c #647B0C",
"d  c #62790A",
"f  c #63780B",
"g  c #5F7608",
"h  c #5F7709",
"j  c #60760A",
"k  c #61770B",
"l  c #5F7609",
"z  c #62790C",
"x  c #607708",
"c  c #5E7507",
"v  c #61790A",
"b  c #65790D",
"n  c #627709",
"m  c #64790C",
"M  c #637B0C",
"N  c #617508",
"B  c #61780B",
"V  c #62780C",
"C  c #5E7509",
"Z  c #637A0C",
"A  c #627708",
"S  c #64790A",
"D  c #65790C",
"F  c #63770B",
"G  c #627A0A",
"H  c #627609",
"J  c #637709",
"K  c #5F7308",
"L  c #607508",
"P  c #61790B",
"I  c #617A0A",
"U  c #627A0D",
"Y  c #657D0E",
"T  c #667E0F",
"R  c #5E780C",
"E  c #5A7209",
"W  c #5D7307",
"Q  c #677B0D",
"!  c #5F7708",
"~  c #677B0C",
"^  c #617509",
"/  c #647D0D",
"(  c #647D0E",
")  c #5B7509",
"_  c #5B7409",
"`  c #617609",
"'  c #637B0D",
"]  c #5E770A",
"[  c #677C0D",
"{  c #63770C",
"}  c #627B0B",
"|  c #667D0E",
" . c #617608",
".. c #667B0D",
"X. c #677B0E",
"o. c #697F0F",
"O. c #60780B",
"+. c #5D760B",
"@. c #5C740B",
"#. c #60790C",
"$. c #667A0D",
"%. c #506B07",
"&. c #546F08",
"*. c #6B810E",
"=. c #677A0F",
"-. c #63770A",
";. c #657C0D",
":. c #667A0C",
">. c #65790B",
",. c #667B0C",
"<. c #647B0E",
"1. c #61750A",
"2. c #667B0E",
"3. c #446205",
"4. c #556F08",
"5. c #667D0F",
"6. c #5D7609",
"7. c #4D6707",
"8. c #5C750A",
"9. c #677C0F",
"0. c #647C0D",
"q. c #647C0C",
"w. c #5E7609",
"e. c #61790C",
"r. c #647909",
"t. c #5E750A",
"y. c #627B0D",
"u. c #677F0F",
"i. c #617B0D",
"p. c #5D770B",
"a. c #5A7409",
"s. c #58730A",
"d. c #627B0C",
"f. c #677C0E",
"g. c #657D0F",
"h. c #667F0F",
"j. c #627C0D",
"k. c #607B0D",
"l. c #5D770A",
"z. c #5C7508",
"x. c #5B7408",
"c. c #5C7308",
"v. c #60790A",
"b. c #5F770C",
"n. c #5F790C",
"m. c #647C0E",
"M. c #5D770C",
"N. c #5B750A",
"B. c #677E0F",
"V. c #637C0D",
"C. c #607A0D",
"Z. c #5C760A",
"A. c #597308",
"S. c #5A720A",
"D. c #5E760A",
"F. c #60790B",
"G. c #627B09",
"H. c #60780C",
"J. c #5B760A",
"K. c #5E770C",
"L. c #5E780B",
"P. c #617B0C",
"I. c #627C0E",
"U. c #5F790D",
"Y. c #5A730A",
"T. c #5A7308",
"R. c #5D7408",
"E. c #62790D",
"W. c #657D0D",
"Q. c #5C7609",
"!. c #597307",
"~. c #5E7408",
"^. c #68800E",
"/. c #688010",
"(. c #5C7307",
"). c #5D750A",
"_. c #60770C",
"`. c #617909",
"'. c #61780C",
"]. c #647A0E",
"[. c #62770C",
"{. c #627A0E",
"}. c #5D7407",
"|. c #60750A",
" X c #5B7007",
".X c #466005",
"XX c #435F04",
"oX c #546D08",
"OX c #587108",
"+X c #697D0F",
"@X c #677B0F",
"#X c #64780D",
"$X c #637808",
"%X c #657C0E",
"&X c #425D03",
"*X c #627A0F",
"=X c #486505",
"-X c #546D06",
";X c #6D8310",
":X c #607507",
">X c #64780C",
",X c #637A0B",
"<X c #64780B",
"1X c #576F0A",
"2X c #4D6709",
"3X c #5C750C",
"4X c #466205",
"5X c #4D6806",
"6X c #60790D",
"7X c #607809",
"8X c #4B6405",
"9X c #446005",
"0X c #426003",
"qX c #4A6605",
"wX c #667E0E",
"eX c #687F10",
"rX c #435E04",
"tX c #476305",
"yX c #516D07",
"uX c #647C0F",
"iX c #798341",
"pX c #6F7E2A",
"aX c #979688",
"sX c #8C8C75",
"dX c #6E7E25",
"fX c #8A896E",
"gX c #657811",
"hX c #677A0D",
"jX c #6A7C1C",
"kX c #687C13",
"lX c #637809",
"zX c #687D0E",
"xX c #697D0E",
"cX c #66790D",
"vX c #697E0F",
"bX c #65790A",
"nX c white",
/* pixels */
"  . X o O + @ # $ % & * = - ; * * : > , > < 1 2 3 & 4 % % . 5 6 ",
"7 8 9 % 0 q w 3 7 ; e r ; t y ; y * u i p a s d y f g & h % j k ",
"7 4 l $ z k x c % - d v - b x * * ; n x * n 3 * m M N 3 B V m C ",
"4 d Z - e v x A S ; Z v 7 - d ; * d D d ; * * F Z G H J * - d K ",
"v z L d G N d P I U Y T R E W d * d 2 Q * x ; * ; ! d n ! ~ ~ x ",
"m ^ M - y d ; % o X / ( X ) _ ` * * Q * * ; Z x n ; d b ' - 2 y ",
"] [ ! m { n m m d k 5 7 w v & } d ; [ y * - y y 2 ` d y d 4 * * ",
"| [ Q 2 d  .; m ; d d d ; ..x n y Q ..y y Q 4 * ; N y n X.[ * * ",
"o.O.8 F z n * y  .; d d * N * ; ;  .* y d y ..* x n m ; x - n x ",
"+.@.#.s y d D  . .g n * M f Z s * $.* s n ; * ; d * d y 3 ; D ; ",
"%.&.*.=.-.y 2 ;.r M  .n :.* ; 7 >.* y n 2 -.d y ,.<.t 7 1.m 2.D ",
"3.4.s s t t Z M 7 B l . % - m ; d m d d M 7 <.5.T ( #.6.@.C q d ",
"7.8.9.0.| | q.' #.w.8 $ e.$ 3 - r.s L V t.] y.T u.T i.p.a.s.@ # ",
"d.f.| g.T h.Y j.k.X l.z.x.c.w 8  .d v.z ] b.n.m.Y U M.o _ N.x.. ",
"e.0.g.T T B.| V.C.M.Z.8.A.S.x.D.F.3 G.7 % w.H.F.e.J.K.0 % w 8 ; ",
"L.P.( h.T T ( I.U.M.N.x.Y.A.T.X R.% n 7 4 -.E.V D.g.B.k V 4 d ! ",
"n.i.y.( Y W.m.i.n.X Q.A.@ T.!.w w z % ..z 4 F k ~.^./.z q % z y ",
"H.H.t Z ' s t #.H.#.o (.8 )._.% w.B `.P t l & . . T | x . % e -.",
"% % '.F.6 6 z 7 P 7 0 7 8 w.% Z z ].g d [.l w h ] {.6 }.x.0.t 5 ",
"M 0 |.B 7 . v.2 4 7 z B z t 3 F | d = 6  X.XXXE.% oXS.OXY +XV @X",
"4 2 m % z 4 #XB * - - % v y * $X; - %X;.f ).&X*X] =X-XJ.;X2 5 H.",
":Xn * z >X3 L - n % `.,X<X* - s ; v 2 d  .* 1X2X3X4X5X6XB.T ( i.",
"v D d S $X`.G n <X= Z * n * 7X- m * n * y * d 8X9X0XqX+.wXeXT k.",
"4 7 d d y x d * ; ` L % n ; y y s * -.3 s n 6 ).rXtXyXM.m.g.uX6X",
"iXpXm * ; y y d y * -.* [ 2 [  .d * ; d - d y 7 (.w D.H.z U U H.",
"aXsXdX; x ; [ y * * ..; n n d d * n y * y n [ ; - * -.{ _.[.% '.",
"fX< gXd * ; *  .y n hX* n y d ; n * s y y y *  .P ; * j t [.4 % ",
"jXkX .d 3 y n ; d lX .y * ; n ; * y * * Q n * d 3 n x D 3 ; * * ",
"d ; z n y * ; y d d y n * * * ; ~.; y y n zXy D y z z d D * n d ",
"y ; ` y d d * ;  .; Q y n * ; y ; * y n * * y * n d ..[ ; ; * d ",
"f 2 n s xXn ; d -  ...Z m s ..s x n d n * ; y * * ; D n  .* * y ",
"v d cXS ..z ,Xv.Z D v * vX-.- ; ;  .-.bX4 Q s } z 3 ; n n x d d "
};
