/* XPM */
static char *_0e8365f590c4c06e0c79c9549a9ce53wQj97J74RbACFm7Q[] = {
/* columns rows colors chars-per-pixel */
"32 33 123 2 ",
"   c #3B3E26",
".  c #3C4A12",
"X  c #3F471F",
"o  c #3E5011",
"O  c #3C4321",
"+  c #42540E",
"@  c #465A0C",
"#  c #4A5D0D",
"$  c #404C18",
"%  c #4E6907",
"&  c #526C07",
"*  c #51650B",
"=  c #546C09",
"-  c #577109",
";  c #5D750A",
":  c #5F780B",
">  c #4E6014",
",  c #596A14",
"<  c #55631A",
"1  c #58631F",
"2  c #61770A",
"3  c #63790B",
"4  c #657A13",
"5  c #697D14",
"6  c #697B1B",
"7  c #434C22",
"8  c #4A4F2E",
"9  c #455022",
"0  c #494A34",
"q  c #4D5034",
"w  c #575A35",
"e  c #595E31",
"r  c #53523D",
"t  c #5F6333",
"y  c #636E27",
"u  c #6D7D23",
"i  c #61633C",
"p  c #6A7434",
"a  c #5F5E43",
"s  c #616142",
"d  c #676748",
"f  c #706F4D",
"g  c #7B794F",
"h  c #7B7955",
"j  c #7E7C5A",
"k  c #6D811D",
"l  c #728524",
"z  c #778729",
"x  c #7B8A2D",
"c  c #7C8C32",
"v  c #77823D",
"b  c #7C8738",
"n  c #7D844C",
"m  c #80903C",
"M  c #859641",
"N  c #8E9649",
"B  c #8B9A4C",
"V  c #909C4E",
"C  c #84825B",
"Z  c #88855D",
"A  c #8E8B5C",
"S  c #919757",
"D  c #949F53",
"F  c #96A058",
"G  c #8D8B63",
"H  c #918E64",
"J  c #939165",
"K  c #989762",
"L  c #95926C",
"P  c #99966B",
"I  c #A29F71",
"U  c #A09E78",
"Y  c #9CA862",
"T  c #A1A46F",
"R  c #A3AC6B",
"E  c #A3A172",
"W  c #ABA775",
"Q  c #A3AE70",
"!  c #AAAC71",
"~  c #ADAA7B",
"^  c #A9B073",
"/  c #AFB57E",
"(  c #ACAB82",
")  c #B1AF83",
"_  c #B0AE8C",
"`  c #B6B48C",
"'  c #BAB78B",
"]  c #BBB88E",
"[  c #B5B494",
"{  c #BBB992",
"}  c #B9B89A",
"|  c #BAC393",
" . c #C4C49C",
".. c #C6C4A0",
"X. c #C9C7A2",
"o. c #C4C8A0",
"O. c #CBCBA6",
"+. c #CDCBAB",
"@. c #D3D1B3",
"#. c #D4D6B8",
"$. c #D9D7BD",
"%. c #D6DABD",
"&. c #DBDAC1",
"*. c #D8DDC1",
"=. c #DDDBC4",
"-. c #DDDDC6",
";. c #DDDFC8",
":. c #E1DFC9",
">. c #DEE1CA",
",. c #E2E1CB",
"<. c #E5E3D2",
"1. c #E7E6D6",
"2. c #E9E8D8",
"3. c #ECEBDD",
"4. c #ECECDF",
"5. c #F1F0E6",
"6. c #F3F3EA",
"7. c #F5F5ED",
"8. c #F7F6F1",
"9. c #FBFAF6",
"0. c #FBFBF8",
"q. c #FDFCFB",
"w. c #FEFDFC",
/* pixels */
"2 ; ; ; 2 2 2 3 6 n C u 2 2 2 2 3 2 2 2 2 2 2 2 2 ; = % ; 2 2 3 ",
"2 2 ; 2 2 2 2 2 3 6 6 4 3 2 2 2 2 2 2 2 2 2 2 2 2 ; & % ; 2 2 2 ",
"2 2 2 2 2 2 2 2 3 3 3 2 2 2 2 2 2 2 2 2 3 3 2 2 2 2 ; ; 2 2 2 2 ",
"2 2 2 2 2 2 2 2 3 3 3 2 2 2 2 2 2 2 2 2 3 3 3 3 2 : ; ; 2 2 3 3 ",
"2 2 3 2 2 2 2 3 3 3 3 2 2 2 2 2 3 3 2 2 2 3 3 3 2 ; ; ; ; 2 3 2 ",
"; 2 3 3 2 2 2 2 3 3 2 3 3 2 2 2 3 2 2 2 : 2 3 3 2 ; ; ; ; 2 2 ; ",
"; 2 3 3 2 2 2 2 3 2 2 3 3 2 ; ; 2 2 2 2 : 2 2 2 2 ; ; ; ; 2 2 2 ",
"2 3 3 3 : ; ; ; 2 2 2 2 2 : ; ; 2 2 3 3 2 2 2 2 2 2 2 2 2 2 2 2 ",
"2 3 3 3 2 ; ; ; ; 2 2 2 2 2 ; ; 2 3 3 3 2 2 2 2 2 2 2 2 2 2 2 2 ",
"2 2 3 2 2 ; ; ; 2 2 ; 2 c B M l 3 3 4 3 3 2 2 2 2 2 2 3 2 2 2 2 ",
"2 2 2 2 2 2 2 2 2 2 4 B o.>.*.| D k 3 3 3 3 3 3 3 2 2 2 3 3 2 2 ",
"2 2 2 2 2 2 3 3 2 2 m  .4.9.q.6.%.Q l 2 3 3 3 3 2 2 2 2 3 2 2 3 ",
"6 3 2 2 2 2 3 3 2 3 F +.<.6.0.w.9.;.R l 2 2 2 3 2 ; ; 2 2 2 2 4 ",
"v 5 2 3 3 3 3 3 2 l ^ +.#.-.4.7.8.5.#.Y k ; 2 2 2 ; ; 2 2 2 3 u ",
"z 4 2 2 2 3 3 2 3 V o.$.#.+.@.=.1.2.<.O.D 5 2 2 2 2 2 2 2 2 3 6 ",
"4 3 3 2 3 3 3 3 z / -.2.:.@. . .+.$.,.&./ z 2 2 2 3 3 3 3 3 2 2 ",
"2 3 3 2 2 2 3 3 D  .=.2.3.-.O.' ) ` } [ T c 3 2 3 2 3 3 3 3 2 2 ",
"3 3 3 2 2 2 2 5 R  .X.+.&.;.@.' I G C Z K N 5 2 3 3 3 3 3 3 3 2 ",
"3 3 3 2 ; ; ; 4 S ~ W ~ ] X...) P H L U ' ! x 2 3 3 3 3 2 2 2 2 ",
"3 3 3 2 ; ; ; : p g g A E ~ ~ E H P { +.+.( b 2 2 3 3 3 2 2 2 2 ",
"2 3 3 2 ; ; ; ; > 9 8 s h G J G h j (  ._ C y 2 3 3 3 2 2 2 2 2 ",
"2 2 2 2 2 2 2 2 = @ . O q s d a r a G ~ P i < 2 3 3 3 2 2 2 2 2 ",
"2 2 2 2 2 2 2 2 2 ; * + $ 7 7 O   0 f J Z t , 2 3 3 3 3 3 3 2 2 ",
"2 2 2 3 2 2 2 2 3 3 2 ; = * # + . X 8 w e 1 2 2 3 3 3 3 3 3 3 3 ",
"; ; ; 2 2 2 2 3 2 2 2 2 3 2 2 ; = # + o # ; 3 2 3 3 2 3 3 3 3 3 ",
"; = - = ; 2 2 3 2 ; ; 2 3 3 3 2 2 ; = = ; 2 3 3 3 3 2 3 3 3 3 3 ",
"; & % % ; : 2 2 2 ; ; 2 2 3 3 2 2 2 2 2 2 2 2 2 3 2 2 2 3 5 3 3 ",
"; ; & & ; 2 2 2 2 2 2 2 2 3 3 3 3 3 2 2 2 2 2 3 3 2 2 2 2 3 3 3 ",
"2 2 2 2 2 2 3 3 3 2 3 3 3 3 3 3 2 2 2 3 3 3 3 3 3 2 2 2 2 2 3 2 ",
"2 2 2 2 2 2 3 3 3 2 3 3 3 3 3 3 3 2 2 2 3 3 3 3 3 2 2 2 2 2 3 2 ",
"2 2 2 2 3 3 3 3 3 2 2 3 3 3 3 3 3 3 2 2 2 2 3 3 3 3 2 2 3 2 3 3 ",
"2 ; ; 2 2 2 3 2 2 3 3 2 2 2 2 3 3 3 2 ; ; ; 2 2 3 2 2 3 2 2 3 3 ",
"2 ; ; ; ; 2 2 2 3 4 4 2 2 : 2 3 3 3 2 ; ; ; : 2 2 ; ; 2 : 2 3 5 "
};
